<svg width="21" height="20" viewBox="0 0 21 20" fill="none" xmlns="http://www.w3.org/2000/svg">
<g clip-path="url(#clip0_1_698)">
<path d="M10.5 0.416687C4.975 0.416687 0.5 4.81669 0.5 10.2434C0.5 14.5859 3.365 18.2684 7.3375 19.5667C7.8375 19.6592 8.02083 19.355 8.02083 19.0942C8.02083 18.8609 8.0125 18.2425 8.00833 17.4234C5.22667 18.0159 4.64 16.105 4.64 16.105C4.185 14.9709 3.5275 14.6675 3.5275 14.6675C2.62167 14.0584 3.5975 14.0709 3.5975 14.0709C4.60167 14.1392 5.12917 15.0834 5.12917 15.0834C6.02083 16.5859 7.47 16.1517 8.04167 15.9009C8.13167 15.265 8.38917 14.8325 8.675 14.5867C6.45417 14.3409 4.12 13.4959 4.12 9.73085C4.12 8.65835 4.5075 7.78169 5.14917 7.09419C5.03667 6.84585 4.69917 5.84669 5.23667 4.49335C5.23667 4.49335 6.07417 4.23002 7.98667 5.50085C8.78667 5.28252 9.63667 5.17419 10.4867 5.16919C11.3367 5.17419 12.1867 5.28252 12.9867 5.50085C14.8867 4.23002 15.7242 4.49335 15.7242 4.49335C16.2617 5.84669 15.9242 6.84585 15.8242 7.09419C16.4617 7.78169 16.8492 8.65835 16.8492 9.73085C16.8492 13.5059 14.5117 14.3367 12.2867 14.5784C12.6367 14.8734 12.9617 15.4759 12.9617 16.3967C12.9617 17.7117 12.9492 18.7684 12.9492 19.0875C12.9492 19.345 13.1242 19.6525 13.6367 19.5542C17.6375 18.2642 20.5 14.5792 20.5 10.2434C20.5 4.81669 16.0225 0.416687 10.5 0.416687Z" fill="white"/>
</g>
<defs>
<clipPath id="clip0_1_698">
<rect width="20" height="20" fill="white" transform="translate(0.5)"/>
</clipPath>
</defs>
</svg>
